<?xml version="1.0" encoding="UTF-8"?>
<!DOCTYPE svg PUBLIC "-//W3C//DTD SVG 1.1//EN" "http://www.w3.org/Graphics/SVG/1.1/DTD/svg11.dtd">
<svg version="1.1" xmlns="http://www.w3.org/2000/svg" xmlns:xlink="http://www.w3.org/1999/xlink" x="0" y="0" width="128" height="128" viewBox="0, 0, 128, 128">
  <g id="Background">
    <rect x="0" y="0" width="128" height="128" fill="#000000" fill-opacity="0"/>
  </g>
  <g id="Layer_1">
    <path d="M15.341,72.91 L15.822,73.367 L16.625,74.206 L17.379,75.088 L18.134,76.057 L18.887,77.109 L19.634,78.238 L20.373,79.438 L21.105,80.705 L21.827,82.03 L22.54,83.411 L23.242,84.838 L23.936,86.308 L24.965,88.594 L26.303,91.724 L27.608,94.907 L28.893,98.112 L30.168,101.301 L31.442,104.43 L32.409,106.723 L33.064,108.223 L33.723,109.676 L34.392,111.09 L35.073,112.46 L35.77,113.782 L36.487,115.053 L37.228,116.269 L37.636,116.895 L37.636,116.895 C37.765,117.093 37.908,117.279 38.064,117.452 L38.064,117.452 L38.081,117.471 L40.067,118.764 L43.54,118.895 L46.03,117.933 L47.443,116.989 L48.294,116.252 L48.871,115.671 L49.308,115.184 L49.789,114.599 L50.364,113.843 L50.92,113.062 L51.462,112.268 L52.007,111.441 L52.562,110.577 L53.132,109.675 L53.715,108.735 L54.309,107.765 L54.913,106.767 L55.825,105.242 L57.049,103.17 L58.254,101.105 L59.127,99.595 L59.686,98.624 L60.219,97.694 L60.726,96.807 L61.201,95.973 L61.64,95.199 L62.04,94.492 L62.397,93.86 L62.707,93.31 L62.906,92.957 L63.022,92.749 L63.123,92.569 L63.21,92.413 L63.282,92.286 L63.338,92.185 L63.362,92.143 L63.362,92.143 L63.55,91.805 L63.95,91.092 L64.378,90.33 L64.837,89.517 L65.326,88.654 L65.844,87.744 L66.389,86.788 L66.961,85.789 L67.559,84.748 L68.181,83.669 L68.828,82.552 L69.497,81.399 L70.188,80.214 L70.901,78.997 L71.634,77.75 L72.386,76.476 L73.156,75.176 L73.944,73.852 L75.158,71.823 L76.829,69.054 L78.55,66.229 L80.316,63.361 L82.12,60.465 L84.887,56.092 L87.687,51.759 L89.555,48.927 L91.429,46.133 L93.292,43.411 L95.138,40.772 L96.955,38.24 L98.283,36.434 L99.149,35.278 L100.013,34.144 L100.863,33.048 L101.696,31.995 L102.512,30.985 L103.308,30.021 L104.083,29.107 L104.834,28.244 L105.558,27.437 L106.252,26.689 L106.913,26.003 L107.539,25.381 L108.12,24.83 L108.654,24.35 L109.133,23.948 L109.549,23.626 L109.889,23.387 L110.142,23.234 L110.293,23.164 L110.18,23.236 L110.18,23.236 C113.968,21.266 116.272,16.936 115.325,13.564 C114.378,10.192 110.539,9.055 106.75,11.025 L106.029,11.413 L104.926,12.075 L103.876,12.783 L102.868,13.53 L101.891,14.315 L100.933,15.138 L99.99,15.997 L99.054,16.895 L98.125,17.826 L97.197,18.796 L96.268,19.802 L95.336,20.844 L94.402,21.921 L93.462,23.032 L92.518,24.177 L91.568,25.355 L90.613,26.564 L89.654,27.802 L88.69,29.069 L87.71,30.377 L86.241,32.379 L84.283,35.11 L82.319,37.919 L80.349,40.799 L78.383,43.73 L76.416,46.715 L73.51,51.214 L70.667,55.707 L68.81,58.689 L66.995,61.637 L65.228,64.537 L63.52,67.368 L62.281,69.439 L61.474,70.795 L60.685,72.126 L59.916,73.431 L59.165,74.707 L58.436,75.953 L57.728,77.168 L57.043,78.347 L56.381,79.491 L55.742,80.598 L55.13,81.664 L54.543,82.689 L53.983,83.671 L53.451,84.607 L52.947,85.496 L52.472,86.337 L52.028,87.127 L51.617,87.86 L51.425,88.204 L51.425,88.204 C49.331,91.955 50.305,95.877 53.601,96.965 C56.897,98.052 61.267,95.894 63.362,92.143 C65.456,88.392 64.482,84.47 61.186,83.382 C57.889,82.295 53.52,84.453 51.425,88.204 L51.425,88.204 L51.407,88.237 L51.355,88.329 L51.288,88.449 L51.206,88.595 L51.109,88.769 L50.999,88.964 L50.808,89.305 L50.508,89.837 L50.162,90.45 L49.773,91.137 L49.345,91.89 L48.884,92.7 L48.393,93.56 L47.876,94.463 L47.339,95.395 L46.504,96.84 L45.351,98.816 L44.186,100.789 L43.327,102.226 L42.775,103.139 L42.241,104.01 L41.735,104.827 L41.26,105.582 L40.826,106.259 L40.443,106.842 L40.128,107.311 L39.906,107.631 L39.79,107.797 L39.815,107.779 L39.978,107.605 L40.308,107.284 L40.941,106.753 L42.163,105.957 L44.491,105.083 L47.834,105.243 L49.721,106.502 L49.701,106.479 L50.129,107.035 L49.87,106.643 L49.292,105.705 L48.706,104.673 L48.114,103.555 L47.517,102.36 L46.916,101.093 L46.311,99.76 L45.707,98.379 L44.787,96.198 L43.536,93.129 L42.258,89.933 L40.943,86.653 L39.581,83.334 L38.168,80.03 L37.066,77.587 L36.301,75.97 L35.513,74.375 L34.702,72.808 L33.862,71.273 L32.992,69.776 L32.088,68.32 L31.147,66.91 L30.165,65.553 L29.137,64.251 L28.057,63.013 L26.97,61.892 L26.486,61.432 C26.486,61.432 26.486,61.432 26.486,61.432 C24.082,59.151 19.638,59.871 16.561,63.04 C13.483,66.21 12.937,70.629 15.341,72.91 L15.341,72.91" fill="#00BF00"/>
  </g>
</svg>
