<?xml version="1.0" encoding="UTF-8"?>
<!DOCTYPE svg PUBLIC "-//W3C//DTD SVG 1.1//EN" "http://www.w3.org/Graphics/SVG/1.1/DTD/svg11.dtd">
<svg version="1.1" xmlns="http://www.w3.org/2000/svg" xmlns:xlink="http://www.w3.org/1999/xlink" x="0" y="0" width="128" height="128" viewBox="0, 0, 128, 128">
  <g id="Background">
    <rect x="0" y="0" width="128" height="128" fill="#000000" fill-opacity="0"/>
  </g>
  <g id="Layer_1">
    <path d="M13.379,23.772 L14.729,25.047 L17.466,27.641 L20.249,30.29 L23.076,32.993 L25.945,35.748 L28.849,38.549 L31.786,41.394 L34.75,44.279 L37.74,47.202 L40.748,50.158 L45.293,54.65 L51.384,60.725 L57.481,66.87 L63.553,73.06 L69.568,79.269 L74.019,83.917 L76.951,87.007 L79.852,90.087 L82.717,93.154 L85.541,96.202 L88.321,99.229 L91.051,102.231 L93.729,105.205 L96.349,108.146 L98.908,111.052 L101.401,113.919 L103.825,116.743 L105.006,118.133 L105.006,118.133 C107.154,120.662 111.539,120.301 114.8,117.325 C118.062,114.35 118.964,109.888 116.816,107.358 C116.816,107.358 116.816,107.358 116.816,107.358 L115.606,105.934 L113.144,103.065 L110.614,100.157 L108.02,97.211 L105.368,94.234 L102.66,91.227 L99.901,88.194 L97.095,85.137 L94.245,82.061 L91.355,78.969 L88.429,75.862 L85.47,72.744 L80.982,68.058 L74.929,61.809 L68.821,55.582 L62.69,49.403 L56.571,43.301 L52.007,38.79 L48.983,35.819 L45.979,32.882 L42.999,29.982 L40.048,27.122 L37.129,24.307 L34.247,21.54 L31.405,18.823 L28.607,16.16 L25.86,13.556 L24.506,12.278 C22.096,10.003 17.651,10.732 14.579,13.906 C11.506,17.08 10.969,21.497 13.379,23.772 L13.379,23.772" fill="#BF0000"/>
    <path d="M93.851,20.637 L91.644,22.828 L87.226,27.128 L82.731,31.419 L78.151,35.742 L73.508,40.105 L68.831,44.517 L64.139,48.989 L59.458,53.533 L55.955,57.008 L53.628,59.361 L51.33,61.726 L49.051,64.118 L46.795,66.538 L44.565,68.986 L42.362,71.466 L40.192,73.978 L38.057,76.525 L35.959,79.109 L33.905,81.729 L31.896,84.388 L29.935,87.088 L28.026,89.831 L26.175,92.615 L24.383,95.445 L23.481,96.926 L23.481,96.926 C21.233,100.621 22,104.641 25.193,105.905 C28.387,107.168 32.798,105.197 35.046,101.502 L35.764,100.318 L37.309,97.869 L38.917,95.443 L40.583,93.041 L42.308,90.66 L44.088,88.299 L45.922,85.956 L47.804,83.632 L49.737,81.324 L51.714,79.031 L53.735,76.753 L55.797,74.487 L57.896,72.235 L60.03,69.994 L62.197,67.763 L64.379,65.554 L67.715,62.243 L72.257,57.833 L76.866,53.439 L81.519,49.051 L86.19,44.66 L90.861,40.252 L95.507,35.815 L100.073,31.37 L102.284,29.174 C105.419,26.061 106.072,21.626 103.744,19.268 C101.415,16.911 96.986,17.523 93.851,20.637 L93.851,20.637" fill="#BF0000"/>
  </g>
</svg>
