<?xml version="1.0" encoding="UTF-8"?>
<!DOCTYPE svg PUBLIC "-//W3C//DTD SVG 1.1//EN" "http://www.w3.org/Graphics/SVG/1.1/DTD/svg11.dtd">
<svg version="1.1" xmlns="http://www.w3.org/2000/svg" xmlns:xlink="http://www.w3.org/1999/xlink" x="0" y="0" width="128" height="128" viewBox="0, 0, 128, 128">
  <g id="Background">
    <rect x="0" y="0" width="128" height="128" fill="#000000" fill-opacity="0"/>
  </g>
  <g id="Layer_1">
    <g>
      <path d="M64,0 L48,43.625 L0,46.499 L38.111,75.625 L24.446,128 L64,96 L103.554,128 L89.889,75.625 L128,46.499 L80,43.625 L64,0 z" fill="#FFFFFF"/>
      <path d="M64,0 L80,43.625 L128,46.499 L89.888,75.625 L103.554,128 L64,96 L24.446,128 L38.111,75.625 L0,46.499 L48,43.625 L64,0 z M64,8.712 L50.817,44.658 L50.14,46.502 L48.179,46.619 L8.229,49.011 L39.933,73.241 L41.518,74.452 L41.014,76.382 L29.652,119.929 L62.113,93.668 L64,92.141 L65.887,93.668 L98.348,119.929 L86.986,76.382 L86.482,74.452 L88.067,73.241 L119.771,49.011 L79.821,46.619 L77.86,46.502 L77.183,44.658 L64,8.712 z" fill="#000000"/>
    </g>
  </g>
</svg>
